# xmcd
#
# Track frame offsets:
#	150
#	21647
#	37015
#	52160
#	66541
#	82152
#	97528
#	112246
#	134619
#	152501
#	170117
#	183906
#	197176
#	214688
#
# Disc length: 3076 seconds
#
# Revision: 2
# Processed by: cddbd v1.5.2PL0 Copyright (c) Steve Scherf et al.
# Submitted via: audiograbber 1.83.01
#
DISCID=d70c020e
DTITLE=Alison Krauss - The Essential
DYEAR=2009
DGENRE=Country
TTITLE0=Simple Love
TTITLE1=Sister Rosetta Goes Before Us
TTITLE2=Let Me Touch You For Awhile
TTITLE3=The Lucky One
TTITLE4=So Long, So Wrong
TTITLE5=Empty Hearts
TTITLE6=Everytime You Say Goodbye
TTITLE7=Wish I Still Had You
TTITLE8=Broadway
TTITLE9=Baby, Now That I Found You (AKUS Live)
TTITLE10=Sawing On The Strings
TTITLE11=Restless
TTITLE12=When You Say Nothing At All (AKUS Live)
TTITLE13=A Living Prayer
EXTD=
EXTT0=
EXTT1=
EXTT2=
EXTT3=
EXTT4=
EXTT5=
EXTT6=
EXTT7=
EXTT8=
EXTT9=
EXTT10=
EXTT11=
EXTT12=
EXTT13=
PLAYORDER=
